<svg xmlns="http://www.w3.org/2000/svg" version="1.1" width="600px" height="600px" viewBox="0 0 200 200" style="overflow:hidden!important;"><g id="svga-group-wrapper"><g id="svga-group-backs-single"></g><g id="svga-group-humanwrap-move" transform="matrix(1,0,0,1,0,0)"><g id="svga-group-humanwrap"><g id="svga-group-hair-back-move" transform="matrix(1,0,0,1,0,0)"><g id="svga-group-hair-back"></g></g><g id="svga-group-humanbody-back"><path id="SvgjsPath12716" d="M77.6 118.3c0 19.3 3.4 44.1-10 51.9-13.4 7.9-31.9 11.3-37.8 22s-4.4 25.3-4.4 25.3h149.3s.7-18.9-5.1-26.4c-8.1-10.4-27.8-15.5-37.7-20.9s-13.4-25.1-13.4-52.4l-40.9.5z" fill="#ffffff" stroke-width="none" opacity="1"></path></g><g id="svga-group-chinshadow-single"></g><g id="svga-group-humanbody-front"><path id="SvgjsPath12717" d="M175.8 218.7H24.4l-.1-1c-.1-.6-1.5-15.1 4.5-26 4.1-7.4 13.5-11.3 23.5-15.5 5-2.1 10.2-4.3 14.8-6.9 10.6-6.2 10.1-23.9 9.6-41-.1-3.5-.2-6.8-.2-10v-1.1l43.2-.4v1.1c0 29.9 4.2 46.7 12.8 51.4 2.9 1.6 6.7 3.2 10.8 4.9 10 4.1 21.3 8.8 27.2 16.3 6.1 7.7 5.4 26.4 5.4 27.1l-.1 1.1zm-149.3-2.2h147.1c0-4.1-.2-18.5-4.9-24.6-5.5-7-16.6-11.6-26.3-15.6-4.1-1.7-8-3.3-11-5-5.1-2.8-8.7-8.9-10.9-18.7-2-8.4-2.9-19.4-3-33.5l-38.6.4c0 2.8.1 5.7.2 8.8.5 17.8 1 36.1-10.7 43-4.7 2.7-9.9 4.9-15 7.1-9.6 4-18.7 7.8-22.4 14.5-5 8.6-4.7 20.1-4.5 23.6z" fill="#000000" stroke-width="none" opacity="1"></path><path id="SvgjsPath12718" d="M93.9 153.8c-.5 1.8-.4 3.4.5 5.2.8 1.6 2.1 2.7 3.9 2.9.4 0 .7-.5.5-.8-1.6-2.2-3.5-4.2-3.7-7.1 0-.7-1-.9-1.2-.2z" fill="#000000" stroke-width="none" opacity="1"></path><path id="SvgjsPath12719" d="M112.5 187.5c8.8.5 18.1-.7 26.6-2.9.7-.2.6-1.4-.2-1.3-8.8 1.1-17.7 2-26.5 3.3-.5.1-.3.9.1.9z" fill="#000000" stroke-width="none" opacity="1"></path><path id="SvgjsPath12720" d="M63.1 182.5c3.8.9 7.6 1.9 11.5 2.8 3.6.8 7.4 2 11.1 2.1.7 0 .8-.9.2-1.2-3.5-1.4-7.5-1.7-11.2-2.5-3.8-.7-7.5-1.3-11.3-2-.5 0-.7.7-.3.8z" fill="#000000" stroke-width="none" opacity="1"></path></g><g id="svga-group-clothes-single"><path id="SvgjsPath13692" d="M75.1 157.9s-1.2.2-3.7 3.2-4.6 5.4-4.6 5.4v2.2s-6.8 4.1-12.2 5.4-23.2 10.7-23.2 10.7-6.1 8.5-7.1 15.1-.7 18.3-.7 18.3h153s-.5-14.6-1.7-19.5-5.1-12.7-5.1-12.7-16.1-8.8-22.2-11c-6.1-2.2-15.6-5.9-15.6-5.9v-1.9s-2.9-3.4-5.1-5.6c-2.2-2.2-1.7-3.4-3.4-3.9 0 0 0 5.9-1 9.8s-9.8 9-12.7 10c-2.9 1-3.9 0-4.9 2.9-1 2.9-2.9 7.3-2.9 7.3s-4.2-4.9-6.8-6.8-6.1-3.7-10.5-3.2c-4.4.4-8.1-15.7-9.6-19.8z" fill="#ffffff" stroke-width="none" opacity="1"></path><path id="SvgjsPath13693" d="M175.9 198.4c-1.2-4.9-5-12.6-5.2-12.9-.1-.2-.2-.3-.4-.4-.7-.4-16.2-8.9-22.3-11-5.1-1.8-12.7-4.7-14.9-5.6v-1.3c0-.2-.1-.5-.2-.6-.1-.1-3-3.5-5.2-5.7-.9-.9-1.3-1.6-1.6-2.2-.5-.8-.9-1.6-2.2-2-.3-.1-.6 0-.9.2s-.4.5-.4.8c0 .1 0 5.8-.9 9.5-.7 2.8-6.6 6.8-10.3 8.6-.1 0-.2.1-.2.1-.6.3-1.1.5-1.5.6-.8.3-1.4.4-2 .5-1.7.3-2.7.6-3.5 3.1-.6 1.8-1.6 4.3-2.3 5.8-1.4-1.6-4-4.4-6-5.8-2.4-1.7-6.1-3.9-11.2-3.4-2.8.3-6.1-11.2-7.4-15.6-.4-1.4-.8-2.7-1.1-3.5-.2-.5-.7-.8-1.1-.6-.4.1-1.8.5-4.2 3.5-2.4 2.9-4.6 5.3-4.6 5.3-.2.2-.3.4-.3.7v1.6c-1.6.9-7.1 4-11.4 5-5.4 1.2-22.7 10.4-23.4 10.8l-.3.3c-.2.4-6.2 8.8-7.2 15.6-1 6.6-.8 18-.7 18.5 0 .5.5 1 1 1h153c.3 0 .5-.1.7-.3.2-.2.3-.5.3-.7-.4-.8-.9-15-2.1-19.9zm-.4 16.4c-.6.8-1.2 1.5-1.8 2.3h-2.2c1.4-1.4 2.7-2.8 4-4.2-.1.7 0 1.3 0 1.9zm-6.5-28.1c.7 1.4 3.9 8 4.9 12.2.7 2.8 1.1 8.9 1.4 13.5-1.6 1.6-3.2 3.1-4.8 4.8h-3.4c2.1-1.9 4-4.2 5.9-6.3.2-.2-.1-.5-.3-.3-2.1 2.2-4.6 4.2-6.6 6.6h-2.6c2.3-2.6 4.3-5.2 7-7.4.2-.2-.1-.4-.3-.3-2.6 2.2-5.4 4.8-7.3 7.7h-3.3l.1-.1c.1-.1 0-.2-.1-.2 1.5-.9 3.1-3.1 4.4-4.6 1.6-1.8 3.1-3.5 4.7-5.3.1-.2-.1-.4-.2-.2-3.1 3.4-6.2 6.7-9.2 10.1-.1-.7-.1-1.7-.2-2.9 3.2-3.5 6.2-7.2 9.3-10.8.1-.2-.1-.4-.2-.2-3 3.4-6.1 6.8-9.1 10.4-.1-1.2-.1-2.4-.2-3.8 2.2-2.9 4.5-5.6 7-8.2.1-.1-.1-.3-.2-.2-2.5 2.4-4.8 4.9-6.9 7.6v-4.6c2.1-2.7 4.1-5.3 6.5-7.8.1-.1-.1-.3-.2-.2-2.2 2.1-4.5 4.4-6.3 7 0-.9.1-1.9.2-2.7 1.5-1.9 3-3.7 4.7-5.4.1-.1-.1-.3-.2-.2-1.5 1.4-3.1 3-4.4 4.6.2-1.1.4-2.1.7-3.1.6-.8 1.1-1.5 1.6-2.3.1-.1-.1-.3-.2-.2-.4.4-.7.9-1.1 1.4 1.3-4.4 3.4-8.4 5.3-10.6 1.8 1 3.1 1.7 3.6 2zm-45.6-19.1c.6-2.4.8-5.6.9-7.7.3.6.8 1.4 1.8 2.3 1.8 1.8 4.1 4.4 4.8 5.3v1.6c-.2 1.6.5 6 1.4 9.4.3 1 .8 2.6 1.5 4.4.9 2.6 2.5 7.2 2.6 8.9-1.1-.4-1.9-1-3.8-2.5-1.1-.9-2.7-2.1-4.9-3.7-3.9-2.8-5.9-4.8-7.6-6.3-1-.9-1.8-1.7-2.7-2.4-.7-.6-1.4-.9-2.1-1.1 3.6-2.3 7.4-5.4 8.1-8.2zm-8 14.6c0-1.5-.5-3.2-.7-4.7.4.2.9.4 1.4.8.1 1.1 0 2.3.2 3.4-.3.2-.6.4-.9.5zm1.1-3.6c.3.2.5.4.8.7v.1c.1.4.1.9.2 1.3 0 .1.2.1.2 0 0-.4 0-.7-.1-1.1l.9.9c-.6.4-1.3.8-1.9 1.1.2-1 0-2-.1-3zm-2.1-1.2c.2 1.6.2 3.4.6 5-.4.2-.8.4-1.2.5 0-1.9-.3-3.8-.5-5.7.3.1.6.1 1.1.2zm-4.3.9c.5-.1 1.1-.4 1.8-.8.2-.1.5-.2 1-.3.2 1.9.2 3.9.6 5.8-.3.1-.7.2-1 .3-.2-1.8-.8-3.6-1.2-5.3 0-.2-.3-.1-.3.1.3 1.7.5 3.7 1.1 5.4-.6.2-1.3.4-1.9.6-.2-.7-.4-1.4-.5-2.1 0-.1.1-.2.1-.4 0-.4-.2-.7-.4-1-.2-.6-.3-1.3-.4-2 .2 0 .7-.1 1.1-.3zm-2.4 6.3c-.2-.6-.4-1.3-.6-1.9.3.3.7.5 1.1.5.4 0 .8-.2 1.1-.5.2.5.3 1.1.5 1.6-.6 0-1.4.2-2.1.3zm.1-5.7c.2 0 .5-.1.8-.1.1.5.1 1 .2 1.5-.2-.1-.4-.1-.6-.1-.7 0-1.2.4-1.4 1.1-.1-.6-.2-1.2-.3-1.9.3-.3.7-.4 1.3-.5zm-1.6.9c.1 1.7.4 3.3 1.1 4.8-.5.1-1.1.1-1.6.2-.1-.7-.3-1.4-.6-2.1.3-.7.5-1.4.8-2.1.1-.3.2-.6.3-.8zm-.9 5c-.3 0-.7 0-1.1.1l.6-1.5c.2.5.3 1 .5 1.4zm-10.5-3c.1 1.2.1 2.6.5 3.8.1.2.3.1.3 0 .1-1-.1-2.2-.3-3.3.2.2.4.3.6.5.1 1 .2 2.1.5 3 0 .1.2.1.2 0 .1-.8-.1-1.7-.2-2.6.9.9 1.9 1.8 2.7 2.7-1.6.1-3.2 0-4.8-.1 0-1.6-.4-3.2-.7-4.8.3.2.6.4 1 .6 0 .1.1.2.2.2zm-1.7 3.9c-.1-.8-.4-1.6-.6-2.4-.2-1-.4-2.1-.5-3.1 0-.2-.3-.2-.3 0 .1 1.8.2 3.9 1.1 5.4-.7-.1-1.3-.2-2-.3-.5-2.1-.9-4.1-.9-6.2 1.1.4 2.1.9 3.2 1.5v.1c.2 1.6.3 3.4.7 4.9-.1.1-.4.1-.7.1zm-4.2-.7c-.4-2.1-.9-4.2-1.2-6.4.7.1 1.3.2 2 .4 0 2.1.2 4.3.9 6.3-.6 0-1.2-.2-1.7-.3zm-1.7-6.4c.1 2.1.4 4.3 1.2 6.3-.5-.1-1-.2-1.5-.4-.4-2-.9-4-1.3-6 .6.1 1.1.1 1.6.1zm-2.1 0h.2c.2 2 .5 4 1.2 5.8-.5-.1-.9-.2-1.4-.4-.2-.8-.5-1.5-.7-2.3-.2-.7-.3-1.4-.4-2.2.4-.3.8-.7 1.1-.9zm-1.5 1.3c.2 1.4.4 2.8.9 4-.5-.1-.9-.3-1.4-.5-.3-.7-.7-1.5-1.1-2.2.6-.4 1.1-.9 1.6-1.3zm-1.9 1.7c.2.5.4 1.1.7 1.6-.6-.2-1.2-.4-1.8-.7.4-.3.7-.6 1.1-.9zm-15.1.8c0-4.3 1.2-13.5 1.2-13.6V166.9c.7-.7 2.5-2.8 4.4-5.1 1-1.2 1.8-1.9 2.3-2.3.2.6.4 1.4.7 2.2 2.2 7.5 4.5 14.4 7.4 16.4-2.2 2-6.7 5.9-9 8.2-2.5 2.5-6.8 5.2-8.9 6.3.1-.8.4-2.1.7-3.1.6-2.4 1.2-5.1 1.2-7.1zM36 186.9c-.9-.7-1.8-1.3-2.8-2 .5-.2 1.1-.6 1.8-.9l-.2.2c.2.3.7 1.3 1.2 2.7zm-6.8 3.3c3.1 2.1 6.2 4.4 9.5 6.2h.1c.4 1.4.7 2.8 1.1 4.3-3.8-2.9-8-5.4-11.8-8.4.4-.7.8-1.4 1.1-2.1zm1.6-2.7c2.2 1.9 4.5 3.9 7 5.3.3 1 .6 2.1.9 3.2-2.9-2.2-6.1-4.2-9.3-6.2.6-.9 1-1.7 1.4-2.3zm.3-.4c.5-.8.9-1.3 1-1.6.1-.1.3-.2.6-.3 1.2.9 2.4 1.9 3.6 2.7.4 1.1.8 2.4 1.2 3.9-2-1.7-4.3-3.1-6.4-4.7zm-6.5 26.4c2 1.3 3.9 2.7 6.1 3.6.1 0 .2-.1.1-.2-1.8-1.6-4-2.7-6.1-3.9 0-1 0-2.1.1-3.3 3.3 3 7.1 5.8 11.2 7.4.2.1.3-.2.1-.3-3.9-2.4-7.7-4.6-11.3-7.6 0-1.1.1-2.1.1-3.2 4.9 4.1 10 8 15.5 11.1H24.6v-3.6zm16.5 3.6c-5.4-3.9-10.9-7.5-16.2-11.5.1-1.5.2-3 .4-4.3 5.1 3.6 10.2 7.4 15.6 10.4.2.1.4-.2.2-.3-5-3.8-10.5-7.1-15.8-10.5 0-.3.1-.6.1-.9.2-1.1.5-2.2.9-3.3 4.6 3 9.3 6.3 14.2 8.9.2.1.3-.2.2-.3-4.5-3.3-9.4-6.1-14.1-9h-.1c.4-1.2 1-2.4 1.5-3.6 3.7 3.2 7.8 6.5 12.1 8.6.1.3.2.6.2.9 1.5 6.6 1.7 12.9 1.7 14.9h-.9zm2.8 0c0-2-.1-8.5-1.7-15.4-1.7-7.4-4.3-16.3-5.7-18.6 5.6-2.9 14.8-7.5 18.4-8.2 3.8-.9 8.3-3.1 10.7-4.5-.4 3-1 8.7-1 11.9 0 1.8-.6 4.4-1.1 6.6-.8 3.4-1.1 4.8-.3 5.6.2.2.5.3.9.3.2 0 .3 0 .5-.1 2-.7 7.4-4 10.5-7.1 1.3-1.3 3.3-3.1 5.2-4.8.8.4 1.7.8 2.5 1.1.1.1.1.1.1.2.1.1.3.1.3-.1.5.2 1.1.4 1.6.6.1.1.1.1.2 0 .6.2 1.1.3 1.7.5v.1c.1.1.2.1.2 0 .6.1 1.2.3 1.8.4h.1c3.5.7 7.1 1 10.7.7.6.6 1.1 1.2 1.3 1.5-.1.4-.6 1.3-1.8 2.5-2.4 2.2-3.2 3.6-3 6.9.2 2.4 1.1 15.8 1.4 19.8l-53.5.1zm54.2-19.9c-.2-2.5.2-3.4 2.3-5.3 2.1-1.9 2.5-3.4 2.6-4 .2-.4.6-1.4 1.1-2.6 2.1 0 4.1-.2 6-.6 0 0 0 .1.1.1.1.1.3 0 .2-.1v-.1c.2 0 .3-.1.5-.1-1.1 5-5.6 7.9-5.7 13.4-.2 6.2 1.2 13 2.2 19.2h-7.8c-.4-3.8-1.4-17.5-1.5-19.9zm9.7 19.9c-.6-6.1-2-12.3-2.1-18.4-.1-6 4.8-8.9 5.6-14.4.3-.1.7-.2 1-.3.1.1.2.1.2-.1.9-.3 1.7-.6 2.6-1v.1c0 .1.2.1.2 0v-.2c1.2-.6 2.4-1.3 3.6-2.1 1.6 1.5 3.7 3.6 7.6 6.4 2.2 1.6 3.7 2.8 4.8 3.7 2.2 1.8 3.2 2.6 5.1 3h.4c.4 0 .8-.2 1.1-.5 1-1.1.3-3.8-2.3-11.2-.6-1.7-1.2-3.3-1.4-4.3-.7-2.8-1.2-5.6-1.3-7.4 2.9 1.1 9.6 3.6 14.3 5.3 3.7 1.3 11.2 5.2 16.4 7.9-2.4 3.1-5.4 9.1-6.5 15.5-.5 3.2-.5 8.1-.3 12.1-.1.2-.3.4-.4.6s.2.4.3.2c0-.1.1-.1.1-.2.1 2.1.2 3.8.3 5l-49.3.3zm66.5 0c.4-.6.8-1.1 1.2-1.7 0 .7.1 1.2.1 1.7h-1.3zm-73.2-22.8c.8 0 1.5.7 1.5 1.5s-.7 1.5-1.5 1.5-1.5-.7-1.5-1.5.7-1.5 1.5-1.5zm.6 15.4c.8 0 1.5.7 1.5 1.5s-.7 1.5-1.5 1.5-1.5-.7-1.5-1.5.6-1.5 1.5-1.5z" fill="#000000" stroke-width="none" opacity="1"></path></g><g id="svga-group-head" transform="matrix(1,0,0,1,0,0)"><g id="svga-group-ears-left-move" transform="matrix(1,0,0,1,0,0)"><g id="svga-group-ears-left"><path id="SvgjsPath13122" d="M59.9 81.9s-4.4-4.7-5.8-6.2c-1.4-1.4-3.1-4.7-5-4.1-1.9.5-1.2 2.7-1.3 5.8-.1 3.1.3 9.1 2.2 12.4 1.9 3.3 2.9 4.5 3.5 8 .6 3.5 2.8 4.2 4.1 3.2 1.3-1 4.3-7 4.4-10.2 0-3.2-1.2-7.5-2.1-8.9z" fill="#ffffff" stroke-width="none" opacity="1"></path><path id="SvgjsPath13123" d="M55.2 102.2c-.8-.3-2.3-1.3-2.8-4.2-.5-2.9-1.2-4-2.7-6.5l-.6-1.1c-2.1-3.6-2.5-10.1-2.4-13v-2c0-2-.1-4.1 2.1-4.7 2.1-.6 3.7 1.5 5 3.2.4.5.7.9 1 1.2 1.4 1.4 5.8 6.2 5.8 6.2l.1.1c.9 1.4 2.3 6 2.2 9.4-.1 3.4-3.2 9.8-4.8 11-.5.4-1.2.6-1.8.6-.4 0-.7-.1-1.1-.2zm-1.8-25.7c-.4-.4-.7-.9-1.1-1.4-.8-1.1-2.1-2.7-2.9-2.5-.6.2-.7.6-.6 2.8v2.1c-.1 3.1.3 8.9 2.1 11.9l.6 1.1c1.5 2.6 2.4 4 3 7.2.3 1.4.8 2.4 1.5 2.7.3.1.7.1 1-.1 1-.8 3.9-6.5 4-9.4.1-3-1.1-7.1-1.8-8.2-.7-.7-4.6-4.9-5.8-6.2z" fill="#000000" stroke-width="none" opacity="1"></path><path id="SvgjsPath13124" d="M48.2 76.3c.5-1.9 2.1-1 3 .4 1.9 2.6 3.2 6.6 3.6 10 0 .1-.1.2-.1.1-.1.1-.2.1-.2-.1-1.2-.5-1.6-.2-1.2.8 0 .3.1.6.3.9.2.5.6 1 .9 1.5.5.8 1.2 1.5 1.7 2.3.2.3 0 .6-.2.4-1.4-1-3.9-4.3-3.2-6.6.3-.8 1-1.1 1.5-.7-1.1-3.6-4-12-5.8-8.8-.1.1-.3 0-.3-.2z" fill="#000000" stroke-width="none" opacity="1"></path><path id="SvgjsPath13125" d="M51.1 76.8c-1 2-1.4 4.4-.9 7.1.3 1.5 2.9 9.5 4.9 8.4.2-.1.4.3.2.5-2 1.8-4.2-4.5-4.9-6.5-1.1-3.4-1.4-7.5.5-9.7.1-.1.2.1.2.2z" fill="#000000" stroke-width="none" opacity="1"></path></g></g><g id="svga-group-ears-right-move" transform="matrix(1,0,0,1,0,0)"><g id="svga-group-ears-right"><path id="SvgjsPath13126" d="M140.1 81.9s4.4-4.7 5.8-6.2c1.4-1.4 3.1-4.7 5-4.1 1.9.5 1.2 2.7 1.3 5.8s-.3 9.1-2.2 12.4c-1.9 3.3-2.9 4.5-3.5 8-.6 3.5-2.8 4.2-4.1 3.2-1.3-1-4.3-7-4.4-10.2 0-3.2 1.2-7.5 2.1-8.9z" fill="#ffffff" stroke-width="none" opacity="1"></path><path id="SvgjsPath13127" d="M143.7 102.4c-.6 0-1.3-.2-1.8-.6-1.5-1.2-4.7-7.5-4.8-11-.1-3.4 1.2-8 2.2-9.4l.1-.1s4.4-4.7 5.8-6.2c.3-.3.6-.8 1-1.2 1.3-1.7 2.9-3.8 5-3.2 2.2.6 2.1 2.7 2.1 4.7v2c.1 2.9-.2 9.4-2.4 13l-.6 1.1c-1.5 2.5-2.2 3.7-2.7 6.5-.5 2.9-2 3.9-2.8 4.2-.4.1-.7.2-1.1.2zm-2.8-19.9c-.7 1.2-1.9 5.2-1.8 8.2.1 2.9 2.9 8.6 4 9.4.3.2.6.3 1 .1.7-.3 1.3-1.3 1.5-2.7.6-3.2 1.4-4.7 3-7.2l.6-1.1c1.8-3 2.2-8.7 2.1-11.9v-2.1c.1-2.2 0-2.6-.6-2.8-.8-.2-2 1.4-2.9 2.5-.4.5-.8 1-1.1 1.4-1.3 1.5-5.2 5.7-5.8 6.2z" fill="#000000" stroke-width="none" opacity="1"></path><path id="SvgjsPath13128" d="M151.8 76.3c-.5-1.9-2.1-1-3 .4-1.9 2.6-3.2 6.6-3.6 10 0 .1.1.2.1.1.1.1.2.1.2-.1 1.2-.5 1.6-.2 1.2.8 0 .3-.1.6-.3.9-.2.5-.6 1-.9 1.5-.5.8-1.2 1.5-1.7 2.3-.2.3 0 .6.2.4 1.4-1 3.9-4.3 3.2-6.6-.3-.8-1-1.1-1.5-.7 1.1-3.6 4-12 5.8-8.8.1.1.3 0 .3-.2z" fill="#000000" stroke-width="none" opacity="1"></path><path id="SvgjsPath13129" d="M148.9 76.8c1 2 1.4 4.4.9 7.1-.3 1.5-2.9 9.5-4.9 8.4-.2-.1-.4.3-.2.5 2 1.8 4.2-4.5 4.9-6.5 1.1-3.4 1.4-7.5-.5-9.7-.1-.1-.2.1-.2.2z" fill="#000000" stroke-width="none" opacity="1"></path></g></g><g id="svga-group-faceshape-wrap"><g id="svga-group-faceshape-single"><path id="SvgjsPath13074" d="M142.4 53.6c-2.3-11.4-15.1-28.8-42.4-28.8S63.6 38.2 59.6 48.1c-3.5 8.5-3.4 22.4-3.4 22.4s.5 29.9 11.4 48.5c10.6 17.9 32.9 33.4 52.7 12.4 24.5-26.1 23.5-60.8 23.5-60.8s.2-8.9-1.4-17z" fill="#ffffff" stroke-width="none" opacity="1"></path><path id="SvgjsPath13075" d="M99.6 142.7c-.9 0-1.9-.1-2.9-.2-13.2-1.5-24.2-12.8-30.2-22.9C55.6 101 55 71.8 55 70.6c0-.6 0-14.3 3.5-22.9 6.6-16.2 20.1-24 41.5-24 12.3 0 23.2 3.6 31.3 10.4 6.3 5.2 10.9 12.5 12.2 19.3 1.6 7.9 1.4 16.5 1.4 17.2 0 .7.1 9.2-2.6 20.9-2.6 11-8.4 27.1-21.2 40.7-6.6 7-13.8 10.5-21.5 10.5zM100 26c-20.3 0-33.2 7.4-39.4 22.6-3.3 8.2-3.3 21.9-3.3 22 0 .3.6 29.8 11.3 47.9 5.7 9.6 16.2 20.4 28.5 21.8 8 .9 15.6-2.4 22.4-9.7 12.5-13.3 18.1-28.9 20.7-39.6 2.8-11.7 2.6-20.3 2.6-20.4 0-.1.2-8.9-1.4-16.7-1.3-6.4-5.6-13.1-11.5-18-7.8-6.5-18.1-9.9-29.9-9.9z" fill="#000000" stroke-width="none" opacity="1"></path></g></g><g id="svga-group-mouth-single-move" transform="matrix(1,0,0,1,0,0)"><g id="svga-group-mouth-single"><path id="SvgjsPath12797" d="M113.77 117.76c-.37.06-.74.14-1.11.21-2.95-1-5.96-1.67-9.06-2.03-.11-.01-.16.04-.2.12-1.14.59-2.28 1.18-3.43 1.78-1.21-.44-2.36-1-3.45-1.67-.12-.08-.24-.02-.3.07l-8.19 2.31c-.03.01-.03.03-.05.04-.44-.04-.88-.09-1.32-.12-.63-.04-.63.94 0 .98.52.03 1.03.08 1.55.14 3.7 3.09 7.35 7.51 12.61 7.33 5.19-.18 8.91-4.27 12.02-7.98.4-.08.79-.15 1.19-.22.62-.13.36-1.07-.26-.96zm-17.32-1.09c1.09.65 2.23 1.2 3.42 1.64.03.01.04-.01.07 0 .06.03.13.03.21-.01 1.19-.62 2.38-1.24 3.58-1.85 2.71.32 5.35.9 7.94 1.72-3.46.71-6.98 1.58-10.47 1.8-4.03.25-8-.73-11.99-1.25 2.41-.69 4.83-1.37 7.24-2.05zm4.37 9.75c-4.89.13-8.3-3.75-11.73-6.74 4.11.52 8.2 1.56 12.35 1.25 3.56-.27 7.12-1.14 10.64-1.85-2.92 3.46-6.46 7.21-11.26 7.34z" fill="#000000" stroke-width="none" opacity="1"></path></g></g><g id="svga-group-eyes-left-move" transform="matrix(1,0,0,1,0,0)"><g id="svga-group-eyes-left"><g id="svga-group-eyesback-left"></g><g id="svga-group-eyesiriswrapper-left"><g id="svga-group-eyesiriscontrol-left" transform="matrix(1,0,0,1,0,0)"><g id="svga-group-eyesiris-left"><path id="SvgjsPath13516" d="M79.2 82.9c2.4 0 4.3 1.9 4.3 4.2s-1.9 4.2-4.3 4.2-4.3-1.9-4.3-4.2 1.9-4.2 4.3-4.2z" fill="#000000" stroke-width="none" opacity="1"></path><path id="SvgjsPath13517" d="M75.5 84.9c-.4 1-.5 2.2-.2 3.1.3 1 .9 1.9 1.8 2.3s1.9.6 2.8.3c.9-.2 1.8-.8 2.2-1.6.5-.8.7-1.8.5-2.8-.1-.5-.3-.9-.6-1.3s-.7-.7-1.1-1-.9-.4-1.4-.6c-.5-.1-1-.1-1.5-.1-.1 0-.3 0-.4.1s-.3.1-.4.1c-.2.1-.5.2-.7.3-.3.4-.7.8-1 1.2.2-.5.6-.9 1-1.3.2-.2.5-.3.7-.5.1-.1.3-.1.4-.2.1-.1.3-.1.4-.1.6-.1 1.2-.2 1.8-.1.6.1 1.1.2 1.7.5s1.1.6 1.4 1.1c.4.5.7 1.1.8 1.7.3 1.2.1 2.5-.6 3.6-.3.5-.8 1-1.3 1.4-.5.3-1.1.6-1.7.7-1.2.2-2.5.1-3.5-.6-.5-.3-.9-.8-1.3-1.3-.3-.5-.5-1.1-.6-1.7-.1-1.1.1-2.3.8-3.2z" fill="#ffffff" stroke-width="none" opacity="1"></path><path id="SvgjsPath13518" d="M79.2 92c-.9 0-1.8-.3-2.6-.8-.5-.3-1-.8-1.3-1.3-.3-.5-.5-1.1-.6-1.7-.2-1.2.1-2.4.7-3.4l.6-.9.2-.2v.1c.1-.1.2-.2.3-.2.2-.2.5-.4.8-.5.1-.1.3-.1.4-.2.1-.1.3-.1.4-.1.6-.2 1.2-.2 1.8-.1.6.1 1.2.3 1.7.5.6.3 1.1.7 1.5 1.2.4.5.7 1.1.8 1.7.3 1.2.1 2.6-.6 3.7-.3.6-.8 1.1-1.3 1.4s-1.1.6-1.8.8c-.3-.1-.7 0-1 0zM75 86.5c-.1.5-.1 1.1 0 1.6.1.6.3 1.1.6 1.6s.7.9 1.2 1.2c1 .6 2.2.8 3.4.6.6-.1 1.2-.4 1.6-.7s.9-.8 1.2-1.3c.6-1 .8-2.3.5-3.5-.1-.6-.4-1.2-.8-1.6-.4-.4-.8-.8-1.4-1.1-.5-.2-1-.4-1.6-.5-.5-.1-1.1 0-1.7.1-.1 0-.3.1-.4.1-.1.1-.3.1-.4.2-.2.1-.3.2-.5.3.2-.1.4-.2.6-.2.1 0 .3-.1.4-.1.1 0 .3-.1.4-.1.6-.1 1.1-.1 1.6.1.6.2 1.1.4 1.5.6.4.3.8.6 1.1 1 .3.4.5.9.6 1.4.2 1 0 2-.5 2.9-.5.9-1.4 1.5-2.4 1.7-1 .2-2.1.1-3-.4S75.4 89 75.1 88c-.1-.4-.1-.9-.1-1.5zm.6-1.5c-.4 1-.4 2-.1 3 .3 1 .9 1.8 1.7 2.2.8.4 1.8.6 2.7.3.9-.2 1.7-.8 2.2-1.6.5-.8.7-1.8.5-2.7-.1-.5-.3-.9-.5-1.2-.3-.4-.6-.7-1-.9-.4-.2-.8-.4-1.4-.6-.4-.1-.9-.1-1.5-.1-.1 0-.2 0-.4.1-.1 0-.2.1-.4.1-.2.1-.4.2-.7.3-.4.3-.7.7-1.1 1.1z" fill="#000000" stroke-width="none" opacity="1"></path><path id="SvgjsPath13519" d="M79.3 84.8c-1.3-.3-2.9 1.3-2.6 2.6.1.3.4.6.7.6.4 0 .6-.1.8-.4.1-.1.1-.2.2-.3 0 0 .1-.1.1-.2V87l.1-.1.1-.1s.2-.1.1-.1c.2-.1.4-.1.6-.2.8-.3.7-1.5-.1-1.7z" fill="#ffffff" stroke-width="none" opacity="1"></path></g></g></g><g id="svga-group-eyesfront-left"><path id="SvgjsPath13398" d="M79 72.1c-8.2 0-14.8 6.6-14.8 14.8s6.6 14.8 14.8 14.8 14.8-6.6 14.8-14.8c0-8.1-6.6-14.8-14.8-14.8zm9.2 21.1c-.5-.2-1.9.2-5.8.1s-7.9-1.2-11-3-3.9-6.2-3.9-6.2 4.4-.9 10.3-.6 9.1 2.3 10.1 4c1.1 1.8 2.2 5.3 2.2 5.3-.1.7-1.5.6-1.9.4z" fill="#ffffff" stroke-width="none" opacity="1"></path><path id="SvgjsPath13399" d="M90.7 92.3c-.2 0-.3.1-.5.1-.1-.2-.1-.4-.2-.7.2-.1.4-.2.6-.4.2-.2.1-.5-.2-.5-.2 0-.4.1-.6.2-.1-.1-.1-.3-.2-.5.4-.2.7-.4 1-.6.2-.2.1-.5-.2-.5-.4 0-.7.2-1.1.4-.1-.2-.2-.4-.3-.7.5-.2.9-.4 1.3-.7.2-.1 0-.5-.2-.4-.5.1-.9.3-1.4.5-.1-.1-.1-.3-.2-.4.4-.2.8-.4 1.1-.7.2-.2 0-.4-.2-.4-.4.1-.8.3-1.2.5-.1-.2-.2-.3-.3-.5.4-.2.8-.4 1.1-.7.2-.2 0-.4-.2-.4-.5.1-.9.3-1.3.5-.1-.2-.3-.4-.5-.6.5-.2.9-.4 1.4-.7.2-.1.1-.4-.1-.4-.6 0-1.2.3-1.7.6l-.3-.3c.5-.2.9-.4 1.3-.7.1-.1 0-.3-.2-.3-.5.2-1 .5-1.4.8l-.1-.1c-.1 0-.1-.1-.2-.1l.9-.6c.1-.1 0-.3-.1-.3-.5 0-1 .2-1.4.5-.1-.1-.2-.1-.4-.2l.3-.3c.1-.1 0-.4-.2-.4-.3-.1-.7.1-.9.3-4.7-1.7-13.6-1.5-17.8-.1-.3.1-.5.5-.4.8s.5.5.8.4c.1 0 .3-.1.4-.1-.1.1-.1.3-.1.5.1.4 2 8.7 15.8 8.7 1.5 0 3.2-.1 5.1-.3.4 0 .6-.4.6-.7 0-.4-.4-.6-.7-.6-17.1 2.1-19.3-6.9-19.4-7.3 0-.2-.2-.4-.4-.4 5.2-1.2 14.6-.9 17.4 1.2 3 2.3 4.3 8.5 4.4 8.6.1.3.3.5.6.5h.1c.4-.1.6-.4.5-.8 0-.1-.1-.5-.3-1 .2 0 .4-.2.5-.4.1-.1-.1-.3-.3-.3zm-24.2-5c-.2-.2-.5.1-.3.3 1.5 2 3.4 3.9 5.8 4.8.2.1.3-.2.2-.4-2-1.5-4-2.9-5.7-4.7z" fill="#000000" stroke-width="none" opacity="1"></path></g></g></g><g id="svga-group-eyes-right-move" transform="matrix(1,0,0,1,0,0)"><g id="svga-group-eyes-right"><g id="svga-group-eyesback-right"></g><g id="svga-group-eyesiriswrapper-right"><g id="svga-group-eyesiriscontrol-right" transform="matrix(1,0,0,1,0,0)"><g id="svga-group-eyesiris-right"><path id="SvgjsPath13520" d="M121.3 82.9c2.4 0 4.3 1.9 4.3 4.2s-1.9 4.2-4.3 4.2-4.3-1.9-4.3-4.2 2-4.2 4.3-4.2z" fill="#000000" stroke-width="none" opacity="1"></path><path id="SvgjsPath13521" d="M117.6 84.9c-.4 1-.5 2.2-.2 3.1.3 1 .9 1.9 1.8 2.3s1.9.6 2.8.3c.9-.2 1.8-.8 2.2-1.6.5-.8.7-1.8.5-2.8-.1-.5-.3-.9-.6-1.3s-.7-.7-1.1-1-.9-.4-1.4-.6c-.5-.1-1-.1-1.5-.1-.1 0-.3 0-.4.1s-.3.1-.4.1c-.2.1-.5.2-.7.3-.3.4-.7.8-1 1.2.2-.5.6-.9 1-1.3.2-.2.5-.3.7-.5.1-.1.3-.1.4-.2.1-.1.3-.1.4-.1.6-.1 1.2-.2 1.8-.1.6.1 1.1.2 1.7.5s1.1.6 1.4 1.1c.4.5.7 1.1.8 1.7.3 1.2.1 2.5-.6 3.6-.3.5-.8 1-1.3 1.4-.5.3-1.1.6-1.7.7-1.2.2-2.5.1-3.5-.6-.5-.3-.9-.8-1.3-1.3-.3-.5-.5-1.1-.6-1.7 0-1.1.2-2.3.8-3.2z" fill="#ffffff" stroke-width="none" opacity="1"></path><path id="SvgjsPath13522" d="M121.3 92c-.9 0-1.8-.3-2.6-.8-.5-.3-1-.8-1.3-1.3-.3-.5-.5-1.1-.6-1.7-.2-1.2.1-2.4.7-3.4l.6-.9.2-.2v.1c.1-.1.2-.2.3-.2.2-.2.5-.4.8-.5.1-.1.3-.1.4-.2.1-.1.3-.1.4-.1.6-.2 1.2-.2 1.8-.1.6.1 1.2.3 1.7.5.6.3 1.1.7 1.5 1.2.4.5.7 1.1.8 1.7.3 1.2.1 2.6-.6 3.7-.3.6-.8 1.1-1.3 1.4s-1.1.6-1.8.8c-.3-.1-.6 0-1 0zm-4.2-5.5c-.1.5-.1 1.1 0 1.6.1.6.3 1.1.6 1.6s.7.9 1.2 1.2c1 .6 2.2.8 3.4.6.6-.1 1.2-.4 1.6-.7s.9-.8 1.2-1.3c.6-1 .8-2.3.5-3.5-.1-.6-.4-1.2-.8-1.6-.4-.4-.8-.8-1.4-1.1-.5-.2-1-.4-1.6-.5-.5-.1-1.1 0-1.7.1-.1 0-.3.1-.4.1-.1.1-.3.1-.4.2-.2.1-.3.2-.5.3.2-.1.4-.2.6-.2.1 0 .3-.1.4-.1.1 0 .3-.1.4-.1.6-.1 1.1-.1 1.6.1.6.2 1.1.4 1.5.6.4.3.8.6 1.1 1 .3.4.5.9.6 1.4.2 1 0 2-.5 2.9-.5.8-1.3 1.5-2.3 1.7-1 .2-2.1.1-3-.4s-1.6-1.4-1.9-2.4c-.1-.4-.2-.9-.2-1.5zm.6-1.5c-.4 1-.4 2-.1 3 .3 1 .9 1.8 1.7 2.2.8.4 1.8.6 2.7.3.9-.2 1.7-.8 2.2-1.6.5-.8.7-1.8.5-2.7-.1-.5-.3-.9-.5-1.2-.3-.4-.6-.7-1-.9-.4-.2-.8-.4-1.4-.6-.4-.1-.9-.1-1.5-.1-.1 0-.2 0-.4.1-.1 0-.2.1-.4.1-.2.1-.4.2-.7.3l-1.1 1.1z" fill="#000000" stroke-width="none" opacity="1"></path><path id="SvgjsPath13523" d="M121.4 84.8c-1.3-.3-2.9 1.3-2.6 2.6.1.3.4.6.7.6.4 0 .6-.1.8-.4.1-.1.1-.2.2-.3 0 0 .1-.1.1-.2V87l.1-.1.1-.1s.2-.1.1-.1c.2-.1.4-.1.6-.2.8-.3.7-1.5-.1-1.7z" fill="#ffffff" stroke-width="none" opacity="1"></path></g></g></g><g id="svga-group-eyesfront-right"><path id="SvgjsPath13400" d="M121 72.1c-8.2 0-14.8 6.6-14.8 14.8s6.6 14.8 14.8 14.8 14.8-6.6 14.8-14.8c0-8.1-6.6-14.8-14.8-14.8zm7.6 18.2c-3.1 1.8-7.1 2.9-11 3s-5.3-.3-5.8-.1c-.5.2-1.9.3-1.9-.4 0 0 1.1-3.5 2.2-5.3s4.3-3.8 10.1-4 10.3.6 10.3.6-.8 4.4-3.9 6.2z" fill="#ffffff" stroke-width="none" opacity="1"></path><path id="SvgjsPath13403" d="M133.8 83.8c-4.8-1.6-16.1-1.7-19.7 1.1-3.4 2.6-4.8 9.1-4.8 9.3-.1.4.2.7.5.8h.1c.3 0 .6-.2.6-.5 0-.1 1.4-6.3 4.4-8.6 2.7-2.1 12.2-2.4 17.4-1.2-.2.1-.3.2-.4.4-.1.4-2.3 9.4-19.4 7.3-.4 0-.7.2-.7.6s.2.7.6.7c1.8.2 3.5.3 5.1.3 13.8 0 15.7-8.3 15.8-8.7 0-.2 0-.4-.1-.5.1 0 .3.1.4.1.3.1.7-.1.8-.4-.1-.2-.3-.6-.6-.7z" fill="#000000" stroke-width="none" opacity="1"></path></g></g></g><g id="svga-group-facehighlight-single"></g><g id="svga-group-eyebrows-left-move" transform="matrix(1,0,0,1,0,0)"><g id="svga-group-eyebrows-left-rotate" transform="matrix(1,1.7453292519943295e-9,-1.7453292519943295e-9,1,1.282749479969425e-7,-1.3499568751740298e-7)"><g id="svga-group-eyebrows-left"><path id="SvgjsPath13584" d="M63.38 74.47c.22-.18 5.53-4.4 8.18-4.68 2.64-.28 18.4 3.81 19.44 5.45.47.75.57 1.33.28 1.75-.23.33-.68.5-1.35.5-.44 0-.98-.07-1.61-.21-1.05-.23-3.78-1.19-6.94-2.29-4.07-1.43-8.69-3.04-9.81-3.12-1.58-.1-6.16 2.28-7.79 3.21-.16.09-.37.04-.48-.11a.408.408 0 0 1 .08-.5z" fill="#000000" stroke-width="none" opacity="1"></path></g></g></g><g id="svga-group-eyebrows-right-move" transform="matrix(1,0,0,1,0,0)"><g id="svga-group-eyebrows-right-rotate" transform="matrix(1,1.7453292519943295e-9,-1.7453292519943295e-9,1,1.2829239892653277e-7,-2.1408810368939157e-7)"><g id="svga-group-eyebrows-right"><path id="SvgjsPath13585" d="M136.62 74.47c-.22-.18-5.53-4.4-8.18-4.68-2.64-.28-18.4 3.81-19.44 5.45-.47.75-.57 1.33-.28 1.75.23.33.68.5 1.35.5.44 0 .98-.07 1.61-.21 1.05-.23 3.78-1.19 6.94-2.29 4.07-1.43 8.69-3.04 9.81-3.12 1.58-.1 6.16 2.28 7.79 3.21.16.09.37.04.48-.11.09-.17.06-.38-.08-.5z" fill="#000000" stroke-width="none" opacity="1"></path></g></g></g><g id="svga-group-beardwrap"><g id="svga-group-beard-single-move" transform="matrix(1,0,0,1,0,0)"><g id="svga-group-beard-single"></g></g></g><g id="svga-group-mustache-single-move" transform="matrix(1,0,0,1,0,0)"><g id="svga-group-mustache-single"></g></g><g id="svga-group-nose-single-move" transform="matrix(1,0,0,1,0,0)"><g id="svga-group-nose-single"><path id="SvgjsPath13107" d="M103.29 107.27c-1.43 1.14-6.6.84-8.09-1.16-1.49-2.01-1.23-5.37-.71-8.74.52-3.36 3.24-17.34 3.75-18.38.52-1.04 1.75-1.16 2.39 0s3.43 16.63 3.75 20.45.86 6.28-1.09 7.83z" fill="#ffffff" stroke-width="none" opacity="1"></path><path id="SvgjsPath13108" d="M95.15 107.24c2.35 1.15 5.1 2.37 7.68 1.14 2.66-1.27 2.67-4.06 2.36-6.63-.96-7.77-2.31-15.48-3.95-23.13-.2-.94-1.65-.54-1.44.4 1.2 5.6 2.24 11.23 3.09 16.89.41 2.72 1.34 5.93.94 8.68-.62 4.25-5.38 2.6-7.91 1.36-.88-.42-1.64.87-.77 1.29z" fill="#000000" stroke-width="none" opacity="1"></path></g></g><g id="svga-group-hair-front"><path id="SvgjsPath13672" d="M99 45.7s-12.3-5.1-15.2-4.9c-6.4.3-9.6 25-9.6 25l-2.3-10.7s-3.7 13.1-3.5 19.5c0 0-3.9-9.4-3.7-15.2 0 0-5.3 18-4.7 28.3 0 0-5.9-8.4-6.4-19.7l-2.1 3.9s-1.6-8-.2-16.4 8-19.3 8-19.3L53 40.1s13.9-16.4 19.1-18c5.1-1.6 10-2.1 10-2.1s-4.3-3-3.7-3 9.4-.8 13.1.8c3.7 1.6 9.2 3.7 9.2 3.7s9-5.3 15.2-5.5l-4.9 3.9s13.7 0 18 3.1c4.3 3.1 14.4 14.2 14.4 14.2s-4.1-.8-3.5-.4 6.8 10.3 8 16.6 2.1 12.1 2.1 12.1l-3.9-3.7s.6 7.6.6 11.1-4.3 17.1-4.3 17.1-1.6-26.5-2.3-28.3l-2.7 9.4s-2.7-15.6-5.7-20.7l-2.1 12.3s-3.7-14.4-5.7-17c0 0-.6 15.3-1.8 22.9 0 0-3.7-20.5-6.2-26.2-2.4-5.7-16.9 3.3-16.9 3.3z" fill="#ffffff" stroke-width="none" opacity="1"></path><path id="SvgjsPath13673" d="M149 53.1c-1-4.9-4.7-11.9-6.9-15.3.4.1.8.2 1.2.2.4.1.9-.1 1.1-.5.2-.4.2-.8-.1-1.2-.4-.5-10.2-11.2-14.5-14.3-3.3-2.4-11.5-3-15.8-3.2l2.8-2.2c.3-.3.5-.7.3-1.1-.1-.4-.5-.7-1-.7-5.6.2-13.3 4.4-15.2 5.4-1.4-.5-5.7-2.2-8.7-3.5-3.5-1.5-10.6-1.1-13-.9h-.5c-.4 0-.9.3-1 .7-.2.6-.3.9 2.1 2.7-1.9.3-4.8.8-7.7 1.8-5.2 1.7-18.1 16.7-19.5 18.4-.3.4-.3.9 0 1.3s.9.5 1.3.2L57 39c-2.1 3.9-5.3 10.6-6.2 16.3-1.5 8.5.1 16.4.2 16.8.1.4.4.7.8.8.4.1.8-.2 1-.5l.5-.9c1.3 9.7 6 16.5 6.2 16.8.3.4.7.5 1.1.4.4-.1.7-.6.7-1-.4-6.6 1.8-16.8 3.3-22.8 1 4.9 3.1 9.9 3.2 10.2.2.4.7.7 1.1.6.5-.1.8-.5.8-1-.1-4 1.3-10.7 2.4-15.1l1.4 6.5c.1.5.5.8 1 .8s.9-.4 1-.9c1.3-9.9 4.8-24 8.7-24.2 1.9-.1 10.1 2.9 14.7 4.8.3.1.6.1.9-.1 2.8-1.7 10.8-6 14.3-4.9.6.2 1 .6 1.3 1.1 2.4 5.6 6.1 25.8 6.1 26 .1.5.5.8 1 .8s.9-.4 1-.8c.8-5.2 1.4-13.9 1.6-19 1.5 4.1 3.2 10.4 4 13.2.1.5.5.8 1 .8s.9-.4.9-.8l1.5-9.1c2.4 6.3 4.3 17.4 4.3 17.5.1.5.5.8.9.8.5 0 .9-.3 1-.7l1.3-4.6c.5 6 1.2 16.2 1.7 23.3 0 .5.4.9.9.9h.1c.4 0 .8-.3 1-.7.2-.6 4.4-13.9 4.4-17.5 0-2.2-.2-6-.4-8.6l2 1.9c.3.3.8.4 1.1.2.4-.2.6-.6.5-1-.3-.1-1.1-5.9-2.3-12.2zm-2.2 7.8c-.3-.3-.7-.4-1.1-.2-.4.2-.6.6-.6 1 0 .1.6 7.6.6 11 0 1.8-1.4 7.2-2.7 11.6-.5-8.2-1.5-21.5-1.9-23-.1-.4-.5-.7-.9-.7s-.8.3-.9.7l-1.5 5.3c-1-5.1-2.9-13.3-5.1-16.9-.2-.4-.6-.5-1-.5s-.7.4-.8.8l-1.3 7.8c-1.3-4.5-3.3-11.1-4.7-12.9-.3-.3-.7-.5-1.1-.3-.4.1-.7.5-.7.9 0 .1-.3 9-1 16.5-1.3-6.6-3.4-16.3-5-20.1-.5-1.1-1.3-1.9-2.5-2.2-4.6-1.4-13.3 3.5-15.5 4.8-2.5-1-12.4-4.9-15.1-4.8-5.5.3-8.6 12.8-10 20.5l-1.1-5.3c-.1-.5-.5-.8-.9-.8s-.9.3-1 .7-2.3 8.4-3.2 14.9c-1-3.1-2.1-7.3-2-10.3 0-.5-.3-.9-.8-1s-1 .2-1.1.7c-.4.7-4.4 14.6-4.9 24.9-1.7-3.4-4.1-9.2-4.4-16 0-.5-.3-.8-.8-.9-.4-.1-.9.1-1.1.5l-.6 1.2c-.3-3-.6-8 .2-13.1 1.4-8.1 7.8-18.8 7.9-18.9.2-.4.2-.9-.2-1.2-.3-.3-.8-.4-1.2-.1l-.6.4C63 30.5 69.5 24 72.4 23c5-1.6 9.8-2 9.8-2 .4 0 .8-.3.9-.7.1-.4 0-.8-.4-1.1-.6-.4-1.3-.9-1.9-1.4 5.1-.2 8.5.1 10.3.9 3.7 1.6 9.2 3.7 9.3 3.7.3.1.6.1.9-.1.1 0 5.8-3.4 11-4.8l-1.9 1.5c-.3.3-.5.7-.3 1.1s.5.7.9.7c3.7 0 14.1.5 17.5 2.9 3 2.2 9.1 8.5 12.2 11.8-1.2-.1-1.5.1-1.7.6-.2.4-.1.9.4 1.2.8.9 6.5 10 7.6 16 .7 3.5 1.2 6.9 1.6 9.2l-1.8-1.6zM99.2 25.6c-1.1 5-1.6 10-1.5 15.1 0 .8 1.3.8 1.3 0-.1-5 .3-9.9 1.4-14.8.2-.7-1-1.1-1.2-.3zm17.6 4.9c-4.1-.9-9.1 1-12.6 3-.7.4-.1 1.5.6 1.1 2.8-1.6 5.8-2.6 9-2.8 4.3-.3 6.3 2.9 7.1 6.8.2.8 1.4.5 1.2-.3-.5-3.1-2-7.1-5.3-7.8zm-29.3 2.8c-5-.5-7.9-.9-11.1 3.3-3 3.9-4.8 8.4-5.7 13.2-.1.8 1.1 1.1 1.2.3.7-3.9 2-7.7 4.2-11 1.3-2 2.4-3.6 4.6-4.5 2.3-.9 4.4-.4 6.8-.1.8.2.8-1.1 0-1.2zm1-6.3c-20.1-7-31.7 22.6-31.2 37.8 0 .8 1.3.8 1.3 0-.3-8.4 1.6-16.7 6-23.9 4.9-8 13.4-16.2 23.6-12.7.7.3 1-.9.3-1.2zm22-1.5c-.8.2-.4 1.5.3 1.2 15.4-5 24.1 14.4 26.5 26.5.2.8 1.4.5 1.2-.3-2.5-12.8-11.8-32.6-28-27.4z" fill="#000000" stroke-width="none" opacity="1"></path></g><g id="svga-group-glasses-single-move" transform="matrix(1,0,0,1,0,0)"><g id="svga-group-glasses-single"></g></g></g></g></g><rect id="svga-credit-rect" width="200" height="15" x="0" y="185" fill="#ecf0f1" opacity="0.5" style="display: none;"></rect><text id="svga-credit-text" font-family="Avenir Next, Roboto, Helvetica, Arial, sans-serif" font-size="10px" text-anchor="start" font-weight="400" size="10px" anchor="start" weight="400" fill="#333333" x="33.40447998046875" y="182.60824704170227" style="display: none;"><tspan id="SvgjsTspan12580" dy="13" x="33.40447998046875">Created on AvatarMaker.com</tspan></text></g><defs id="SvgjsDefs12527"></defs></svg>